<svg width="56" height="56" viewBox="0 0 56 56" fill="none" xmlns="http://www.w3.org/2000/svg">
<g clip-path="url(#clip0_312_4)">
<path d="M34.8687 8.75C37.837 9.54663 40.5435 11.11 42.7167 13.2832C44.8899 15.4564 46.4533 18.1629 47.2499 21.1313" stroke="#FF7A00" stroke-width="2.5" stroke-linecap="round" stroke-linejoin="round"/>
<path d="M33.0532 15.5094C34.8385 15.9835 36.4667 16.9212 37.7728 18.2273C39.0789 19.5334 40.0166 21.1616 40.4907 22.9469" stroke="#FF7A00" stroke-width="2.5" stroke-linecap="round" stroke-linejoin="round"/>
<path d="M20.2344 27.3C22.0352 31.0187 25.0422 34.0181 28.7656 35.8093C29.0403 35.9394 29.3441 35.9957 29.6471 35.9727C29.9501 35.9496 30.2419 35.8481 30.4938 35.6781L35.9625 32.0249C36.2041 31.8611 36.4833 31.7611 36.774 31.7343C37.0648 31.7075 37.3575 31.7548 37.625 31.8718L47.8625 36.2687C48.2124 36.4143 48.5047 36.6709 48.6944 36.999C48.8842 37.3271 48.9608 37.7084 48.9125 38.0843C48.588 40.6169 47.3519 42.9444 45.4353 44.6315C43.5188 46.3185 41.0533 47.2494 38.5 47.25C30.6098 47.25 23.0428 44.1156 17.4636 38.5364C11.8844 32.9572 8.75 25.3901 8.75 17.5C8.75058 14.9467 9.68147 12.4811 11.3685 10.5646C13.0555 8.64808 15.3831 7.41193 17.9156 7.08745C18.2915 7.03916 18.6729 7.11579 19.0009 7.30552C19.329 7.49524 19.5856 7.78756 19.7313 8.13745L24.1281 18.3968C24.2425 18.6601 24.2903 18.9474 24.2674 19.2335C24.2445 19.5196 24.1516 19.7957 23.9969 20.0375L20.3438 25.5937C20.1811 25.845 20.0857 26.1338 20.0665 26.4326C20.0474 26.7313 20.1052 27.0299 20.2344 27.3Z" stroke="#FF7A00" stroke-width="2.4" stroke-linecap="round" stroke-linejoin="round"/>
</g>
<defs>
<clipPath id="clip0_312_4">
<rect width="56" height="56" fill="white"/>
</clipPath>
</defs>
</svg>
