<svg width="56" height="56" viewBox="0 0 56 56" fill="none" xmlns="http://www.w3.org/2000/svg">
<g clip-path="url(#clip0_290_201)">
<path d="M34.8687 8.75C37.837 9.54663 40.5435 11.11 42.7167 13.2832C44.8899 15.4564 46.4533 18.1629 47.2499 21.1313" stroke="white" stroke-width="2.5" stroke-linecap="round" stroke-linejoin="round"/>
<path d="M33.0532 15.5093C34.8385 15.9834 36.4667 16.9211 37.7728 18.2272C39.0789 19.5333 40.0166 21.1615 40.4907 22.9468" stroke="white" stroke-width="2.5" stroke-linecap="round" stroke-linejoin="round"/>
<path d="M20.2344 27.3001C22.0352 31.0189 25.0422 34.0182 28.7656 35.8094C29.0403 35.9395 29.3441 35.9958 29.6471 35.9728C29.9501 35.9498 30.2419 35.8482 30.4938 35.6782L35.9625 32.0251C36.2041 31.8612 36.4833 31.7612 36.774 31.7344C37.0648 31.7077 37.3575 31.755 37.625 31.8719L47.8625 36.2688C48.2124 36.4144 48.5047 36.6711 48.6944 36.9991C48.8842 37.3272 48.9608 37.7086 48.9125 38.0844C48.588 40.617 47.3519 42.9446 45.4353 44.6316C43.5188 46.3186 41.0533 47.2495 38.5 47.2501C30.6098 47.2501 23.0428 44.1157 17.4636 38.5365C11.8844 32.9573 8.75 25.3903 8.75 17.5001C8.75058 14.9468 9.68147 12.4812 11.3685 10.5647C13.0555 8.6482 15.3831 7.41205 17.9156 7.08757C18.2915 7.03929 18.6729 7.11591 19.0009 7.30564C19.329 7.49537 19.5856 7.78768 19.7313 8.13757L24.1281 18.3969C24.2425 18.6602 24.2903 18.9476 24.2674 19.2337C24.2445 19.5198 24.1516 19.7958 23.9969 20.0376L20.3438 25.5938C20.1811 25.8451 20.0857 26.134 20.0665 26.4327C20.0474 26.7314 20.1052 27.0301 20.2344 27.3001Z" stroke="white" stroke-width="2.4" stroke-linecap="round" stroke-linejoin="round"/>
</g>
<defs>
<clipPath id="clip0_290_201">
<rect width="56" height="56" fill="white"/>
</clipPath>
</defs>
</svg>
