<svg width="38" height="38" viewBox="0 0 38 38" fill="none" xmlns="http://www.w3.org/2000/svg">
<g clip-path="url(#clip0_367_138)">
<path d="M18.9994 15.7465C17.2051 15.7465 15.7451 17.2057 15.7451 19C15.7451 20.7944 17.2051 22.2543 18.9994 22.2543C20.7946 22.2543 22.2553 20.7944 22.2553 19C22.2553 17.2057 20.7946 15.7465 18.9994 15.7465Z" fill="black" stroke="black" stroke-width="0.6"/>
<path d="M24.5024 15.6408C24.3177 15.5412 24.0882 15.6066 23.9856 15.7905C23.8845 15.9744 23.9522 16.2055 24.1353 16.3066C25.1332 16.8553 25.729 17.8615 25.729 19C25.729 20.1392 25.134 21.1462 24.1353 21.6942C23.9514 21.796 23.8845 22.0271 23.9856 22.211C24.0555 22.3364 24.1855 22.4078 24.3185 22.4078C24.3808 22.4078 24.4439 22.3926 24.5016 22.3607C25.7457 21.676 26.4883 20.4197 26.4883 19C26.489 17.5803 25.7465 16.324 24.5024 15.6408Z" fill="black" stroke="black" stroke-width="0.6"/>
<path d="M28.0227 11.8939C27.8381 11.7936 27.6085 11.8597 27.5059 12.0437C27.4049 12.2276 27.4725 12.4586 27.6557 12.5597C30.0413 13.8707 31.4655 16.2784 31.4655 18.9999C31.4655 21.7215 30.0413 24.1292 27.6557 25.4402C27.4725 25.542 27.4049 25.7731 27.5059 25.957C27.5759 26.0824 27.7058 26.1538 27.8388 26.1538C27.9011 26.1538 27.9635 26.1386 28.022 26.1067C30.6539 24.6604 32.2248 22.0035 32.2248 18.9999C32.2248 15.9964 30.6546 13.3402 28.0227 11.8939Z" fill="black" stroke="black" stroke-width="0.6"/>
<path d="M31.5442 8.08257C31.3595 7.98301 31.1293 8.04837 31.0274 8.23229C30.9263 8.41621 30.994 8.64725 31.1771 8.74833C34.9733 10.8361 37.2404 14.6687 37.2404 19.0007C37.2404 23.332 34.9741 27.1647 31.1771 29.2509C30.994 29.3527 30.9263 29.5837 31.0274 29.7677C31.0973 29.8931 31.2273 29.9645 31.3603 29.9645C31.4226 29.9645 31.4849 29.9493 31.5435 29.9174C35.5859 27.6944 37.9997 23.6139 37.9997 19.0007C37.9997 14.3875 35.5867 10.3056 31.5442 8.08257Z" fill="black" stroke="black" stroke-width="0.6"/>
<path d="M13.8647 16.3066C14.0486 16.2055 14.1162 15.9745 14.0144 15.7906C13.9133 15.6067 13.6815 15.5398 13.4984 15.6409C12.2542 16.3249 11.5117 17.5811 11.5117 19.0008C11.5117 20.4213 12.2542 21.6768 13.4984 22.3608C13.5561 22.3927 13.6192 22.4079 13.6808 22.4079C13.8145 22.4079 13.9452 22.3365 14.0136 22.2111C14.1147 22.0271 14.0478 21.7961 13.8639 21.6943C12.866 21.1455 12.271 20.1385 12.271 19.0008C12.2717 17.8616 12.8668 16.8546 13.8647 16.3066Z" fill="black" stroke="black" stroke-width="0.6"/>
<path d="M10.3426 12.5597C10.5265 12.4586 10.5941 12.2276 10.4923 12.0436C10.3912 11.8597 10.1594 11.7928 9.97624 11.8939C7.34436 13.3402 5.77344 15.9972 5.77344 19.0007C5.77344 22.0034 7.34512 24.6596 9.97624 26.1067C10.034 26.1386 10.0971 26.1538 10.1586 26.1538C10.2932 26.1538 10.4231 26.0824 10.4915 25.957C10.5926 25.773 10.5257 25.5412 10.3418 25.4402C7.95692 24.1292 6.53344 21.7222 6.53268 19.0007C6.5342 16.2784 7.95768 13.8707 10.3426 12.5597Z" fill="black" stroke="black" stroke-width="0.6"/>
<path d="M6.82252 29.2509C3.02632 27.1647 0.76 23.3328 0.76 19.0015C0.76 14.6688 3.02556 10.8361 6.82252 8.74837C7.00644 8.64729 7.07408 8.41625 6.97224 8.23233C6.87116 8.04841 6.63936 7.98077 6.4562 8.08261C2.413 10.3056 0 14.3876 0 19.0015C0 23.6147 2.41376 27.6952 6.45696 29.9174C6.51472 29.9493 6.5778 29.9645 6.63936 29.9645C6.77388 29.9645 6.90384 29.8931 6.97224 29.7677C7.07408 29.5838 7.00644 29.3527 6.82252 29.2509Z" fill="black" stroke="black" stroke-width="0.6"/>
</g>
<defs>
<clipPath id="clip0_367_138">
<rect width="38" height="38" fill="white"/>
</clipPath>
</defs>
</svg>
