<svg width="32" height="32" viewBox="0 0 32 32" fill="none" xmlns="http://www.w3.org/2000/svg">
<g clip-path="url(#clip0_367_133)">
<path d="M30.5 1H26.5V2H29.293L17.7364 13.5566C17.3684 13.2945 16.9456 13.1196 16.5 13.045V2.70703L18.6465 4.85353L19.3535 4.1465L16.3535 1.1465C16.3071 1.10006 16.252 1.06322 16.1913 1.03808C16.1307 1.01295 16.0656 1.00001 16 1.00001C15.9343 1.00001 15.8693 1.01295 15.8087 1.03808C15.748 1.06322 15.6929 1.10006 15.6465 1.1465L12.6465 4.1465L13.3535 4.8535L15.5 2.70703V13.045C15.0544 13.1196 14.6316 13.2945 14.2636 13.5566L2.70703 2H5.5V1H1.5C1.43433 0.999963 1.36929 1.01287 1.30861 1.03798C1.24793 1.0631 1.1928 1.09993 1.14636 1.14636C1.09993 1.1928 1.0631 1.24793 1.03798 1.30861C1.01287 1.36929 0.999963 1.43433 1 1.5V5.5H2V2.70703L13.5566 14.2636C13.2945 14.6316 13.1196 15.0544 13.045 15.5H2.70703L4.85353 13.3535L4.1465 12.6465L1.1465 15.6465C1.10006 15.6929 1.06322 15.748 1.03808 15.8087C1.01295 15.8693 1.00001 15.9344 1.00001 16C1.00001 16.0657 1.01295 16.1307 1.03808 16.1913C1.06322 16.252 1.10006 16.3071 1.1465 16.3535L4.1465 19.3535L4.8535 18.6465L2.70703 16.5H13.045C13.1196 16.9456 13.2945 17.3684 13.5566 17.7364L2 29.293V26.5H1V30.5C0.999963 30.5657 1.01287 30.6307 1.03798 30.6914C1.0631 30.7521 1.09993 30.8072 1.14636 30.8536C1.1928 30.9001 1.24793 30.9369 1.30861 30.962C1.36929 30.9871 1.43433 31 1.5 31H5.5V30H2.70703L14.2636 18.4435C14.6316 18.7055 15.0544 18.8804 15.5 18.955V29.293L13.3535 27.1465L12.6465 27.8535L15.6465 30.8535C15.6929 30.8999 15.748 30.9368 15.8087 30.9619C15.8693 30.987 15.9344 31 16 31C16.0657 31 16.1307 30.987 16.1913 30.9619C16.252 30.9368 16.3071 30.8999 16.3535 30.8535L19.3535 27.8535L18.6465 27.1465L16.5 29.293V18.955C16.9456 18.8804 17.3684 18.7055 17.7364 18.4434L29.293 30H26.5V31H30.5C30.5657 31 30.6307 30.9871 30.6914 30.962C30.7521 30.9369 30.8072 30.9001 30.8536 30.8536C30.9001 30.8072 30.9369 30.7521 30.962 30.6914C30.9871 30.6307 31 30.5657 31 30.5V26.5H30V29.293L18.4435 17.7364C18.7055 17.3684 18.8804 16.9456 18.955 16.5H29.293L27.1465 18.6465L27.8535 19.3535L30.8535 16.3535C30.8999 16.3071 30.9368 16.252 30.9619 16.1913C30.9871 16.1307 31 16.0656 31 16C31 15.9343 30.9871 15.8693 30.9619 15.8087C30.9368 15.748 30.8999 15.6929 30.8535 15.6465L27.8535 12.6465L27.1465 13.3535L29.293 15.5H18.955C18.8804 15.0544 18.7055 14.6316 18.4434 14.2636L30 2.70703V5.5H31V1.5C31 1.43433 30.9871 1.36929 30.962 1.30861C30.9369 1.24793 30.9001 1.1928 30.8536 1.14636C30.8072 1.09993 30.7521 1.0631 30.6914 1.03798C30.6307 1.01287 30.5657 0.999963 30.5 1Z" fill="black" stroke="black" stroke-width="0.4"/>
</g>
<defs>
<clipPath id="clip0_367_133">
<rect width="32" height="32" fill="white"/>
</clipPath>
</defs>
</svg>
