<svg width="80" height="80" viewBox="0 0 80 80" fill="none" xmlns="http://www.w3.org/2000/svg">
<path d="M69.5485 47.5659L59.2901 41.084L69.4757 33.5509C69.9762 33.1815 70.0817 32.4766 69.7117 31.9768C69.3423 31.477 68.6374 31.3715 68.1376 31.7415L53.6938 42.4232L53.6878 42.4184L53.6818 42.4232L39.2379 31.7415C38.7388 31.3715 38.034 31.477 37.6638 31.9768C37.2945 32.4766 37.4001 33.1815 37.8999 33.5509L48.0856 41.084L37.8278 47.5659C37.302 47.8982 37.1452 48.5934 37.4777 49.1191C37.6918 49.4577 38.0563 49.6438 38.4301 49.6438C38.6363 49.6438 38.8437 49.5874 39.0307 49.4691L50.0279 42.5201L53.0192 44.7329C53.2176 44.8796 53.4527 44.9537 53.6881 44.9537C53.9235 44.9537 54.1588 44.8796 54.3578 44.7329L57.3482 42.5201L68.3456 49.4691C68.5323 49.5874 68.7404 49.6438 68.9462 49.6438C69.3199 49.6438 69.6849 49.4577 69.8985 49.1191C70.2303 48.5934 70.0738 47.8982 69.5485 47.5659Z" fill="white"/>
<path d="M74.0174 46.5478H74.0206V46.3478V33.6516C74.0206 30.3627 71.5696 27.6667 68.5099 27.6667H38.8651C35.8062 27.6667 33.3553 30.3627 33.3553 33.6516V46.3478C33.3553 49.6368 35.806 52.3334 38.8651 52.3334H68.5098C71.5072 52.3334 73.9204 49.7454 74.0174 46.5478ZM38.8651 25.2508H68.5098C72.737 25.2508 76.2045 29.0032 76.2045 33.6516V46.3478C76.2045 50.9968 72.7371 54.7492 68.5099 54.7492H38.8651C34.6387 54.7492 31.1712 50.9967 31.1712 46.3478V33.6516C31.1712 29.0032 34.6387 25.2508 38.8651 25.2508Z" fill="white" stroke="white" stroke-width="0.4"/>
<path d="M25.2851 31.936H4.87133C4.16711 31.936 3.5957 32.5073 3.5957 33.2117C3.5957 33.9165 4.16711 34.4879 4.87133 34.4879H25.2851C25.9887 34.4879 26.5601 33.9165 26.5601 33.2117C26.5602 32.5074 25.9887 31.936 25.2851 31.936Z" fill="white"/>
<path d="M25.5598 38.406H9.54914C8.99711 38.406 8.54883 38.9768 8.54883 39.6816C8.54883 40.3858 8.99711 40.9579 9.54914 40.9579H25.5598C26.1126 40.9579 26.5601 40.3858 26.5601 39.6816C26.5601 38.9768 26.1124 38.406 25.5598 38.406Z" fill="white"/>
<path d="M25.7758 44.875H13.2185C12.7847 44.875 12.4341 45.4464 12.4341 46.1506C12.4341 46.8556 12.7847 47.4269 13.2185 47.4269H25.7758C26.2088 47.4269 26.5602 46.8556 26.5602 46.1506C26.5602 45.4464 26.2089 44.875 25.7758 44.875Z" fill="white"/>
</svg>
