<svg width="24" height="24" viewBox="0 0 24 24" fill="none" xmlns="http://www.w3.org/2000/svg">
<g clip-path="url(#clip0_309_3120)">
<path d="M11.9998 23.3251C18.2544 23.3251 23.3248 18.2547 23.3248 12.0001C23.3248 5.74543 18.2544 0.675049 11.9998 0.675049C5.74518 0.675049 0.674805 5.74543 0.674805 12.0001C0.674805 18.2547 5.74518 23.3251 11.9998 23.3251Z" fill="#3A5896"/>
<path d="M10.4251 19.4999V12.1499H8.8501V9.97491H10.4251V8.2499C10.4251 7.3499 10.7251 6.6749 11.2501 6.1499C11.7751 5.6999 12.6001 5.3999 13.6501 5.3999C13.8751 5.3999 14.1751 5.3999 14.4001 5.3999C14.7001 5.3999 14.9251 5.47491 15.2251 5.47491V7.72491C15.1501 7.72491 15.0001 7.72491 14.9251 7.72491C14.7751 7.72491 14.6251 7.72491 14.4001 7.72491C13.8751 7.72491 13.5751 7.7999 13.3501 8.0249C13.1251 8.2499 13.0501 8.54991 13.0501 9.07491V9.97491H15.1501L14.7751 12.1499H13.0501V19.4999H10.4251Z" fill="white"/>
</g>
<defs>
<clipPath id="clip0_309_3120">
<rect width="24" height="24" fill="white"/>
</clipPath>
</defs>
</svg>
