<svg width="124" height="95" viewBox="0 0 124 95" fill="none" xmlns="http://www.w3.org/2000/svg">
<g clip-path="url(#clip0_330_74)">
<path d="M11.8213 62.24L19.7505 54.3108L17.9689 52.5292L6.99805 63.5L17.9689 74.4708L19.7505 72.6892L11.8213 64.76H66.7397V62.24H11.8213Z" fill="#00A3FF"/>
</g>
<g clip-path="url(#clip1_330_74)">
<path d="M63.3961 72.4675C63.6297 72.6709 63.9242 72.7726 64.2289 72.7421C64.5336 72.7218 64.8078 72.5692 65.011 72.3353L93.6929 37.9272C92.8195 37.2153 92.7179 36.8084 92.332 36.1168L63.2742 70.8097C63.1726 70.9317 63.1015 71.0639 63.0508 71.2063C63 71.3487 62.9797 71.5115 63 71.664C63.0101 71.8166 63.0508 71.9691 63.1218 72.1014C63.1929 72.2438 63.2844 72.3658 63.3961 72.4573V72.4675Z" fill="#FF7A00"/>
<path d="M124 27.9942V41.4575C124 43.4036 122.407 45.0304 120.464 45.0004C118.584 44.9605 117.063 43.4236 117.063 41.5373V30.0302L114.75 27.066V47.3558L122.561 68.8032C123.435 71.1984 122.201 73.8532 119.796 74.7214C117.402 75.5897 114.75 74.3622 113.876 71.9569L108.984 58.5535L102.838 72.1266C101.872 74.4919 99.1794 75.6197 96.8155 74.6516C94.4516 73.6935 93.3108 70.9988 94.2769 68.6335L104.339 45.8088V29.0421L93.1875 42.5254C91.8719 44.202 89.6725 44.1621 88.3159 43.0942C86.8153 41.9166 86.5584 39.7309 87.7506 38.2339L105.089 16.3074C105.778 15.4491 106.785 15 107.813 15H112.438C113.465 15 114.493 15.4591 115.171 16.3274L123.794 27.3854C123.928 27.5651 124 27.7746 124 27.9942Z" fill="#FF7A00"/>
<path d="M81.9516 50.417L87.3854 43.8975C87.4869 43.7754 87.4768 43.5822 87.3447 43.4805L86.1767 42.5346C85.9736 42.3617 85.7095 42.2701 85.4455 42.2803H82.2868C81.9618 42.2803 81.6469 42.4227 81.4336 42.6668L79.7578 44.5179C79.5648 44.7315 79.4531 45.0061 79.4531 45.3011V50.3153C79.4633 50.478 79.6055 50.6204 79.768 50.6204H81.5555C81.7079 50.6204 81.8602 50.5492 81.9618 50.4272L81.9516 50.417Z" fill="#00A3FF"/>
<path d="M109.172 13.8457C105.749 13.2762 103.444 9.96045 104.023 6.44133C104.602 2.92221 107.852 0.511712 111.274 1.08128C114.697 1.65085 117.003 4.96655 116.424 8.48568C115.845 12.0048 112.595 14.4051 109.172 13.8457Z" fill="#FF7A00"/>
</g>
<path d="M34.5589 55.1392C33.843 55.1392 33.2067 55.0166 32.6499 54.7713C32.0964 54.526 31.6589 54.1847 31.3374 53.7472C31.0159 53.3097 30.8452 52.8042 30.8253 52.2308H32.6946C32.7112 52.5059 32.8023 52.7462 32.968 52.9517C33.1338 53.1539 33.3542 53.3113 33.6293 53.424C33.9044 53.5367 34.2126 53.593 34.554 53.593C34.9186 53.593 35.2417 53.5301 35.5234 53.4041C35.8052 53.2749 36.0256 53.0959 36.1847 52.8672C36.3438 52.6385 36.4216 52.375 36.4183 52.0767C36.4216 51.7685 36.3421 51.4967 36.1797 51.2614C36.0173 51.026 35.782 50.8421 35.4737 50.7095C35.1688 50.5769 34.8009 50.5107 34.37 50.5107H33.4702V49.0888H34.37C34.7247 49.0888 35.0346 49.0275 35.2997 48.9048C35.5682 48.7822 35.7786 48.6098 35.9311 48.3878C36.0836 48.1624 36.1581 47.9022 36.1548 47.6072C36.1581 47.3189 36.0935 47.0687 35.9609 46.8565C35.8317 46.6411 35.6477 46.4737 35.4091 46.3544C35.1738 46.2351 34.897 46.1754 34.5788 46.1754C34.2673 46.1754 33.9789 46.2318 33.7138 46.3445C33.4486 46.4571 33.2348 46.6179 33.0724 46.8267C32.91 47.0322 32.8239 47.2775 32.8139 47.5625H31.0391C31.0523 46.9924 31.2164 46.492 31.5312 46.0611C31.8494 45.6269 32.2737 45.2888 32.804 45.0469C33.3343 44.8016 33.9292 44.679 34.5888 44.679C35.2682 44.679 35.8582 44.8066 36.3587 45.0618C36.8625 45.3137 37.2519 45.6534 37.527 46.081C37.8021 46.5085 37.9396 46.9808 37.9396 47.4979C37.9429 48.0713 37.7739 48.5518 37.4325 48.9396C37.0945 49.3274 36.6503 49.581 36.1001 49.7003V49.7798C36.8161 49.8793 37.3646 50.1444 37.7457 50.5753C38.1302 51.0028 38.3208 51.5348 38.3175 52.1712C38.3175 52.7412 38.1551 53.2517 37.8303 53.7024C37.5088 54.1499 37.0646 54.5012 36.4979 54.7564C35.9344 55.0116 35.2881 55.1392 34.5589 55.1392ZM43.9118 47.3636V48.7557H39.3975V47.3636H43.9118ZM40.5261 55V46.6428C40.5261 46.129 40.6322 45.7015 40.8443 45.3601C41.0597 45.0187 41.3481 44.7635 41.7093 44.5945C42.0706 44.4254 42.4717 44.3409 42.9125 44.3409C43.224 44.3409 43.5008 44.3658 43.7427 44.4155C43.9847 44.4652 44.1636 44.5099 44.2797 44.5497L43.9217 45.9418C43.8455 45.9186 43.7493 45.8954 43.6333 45.8722C43.5173 45.8456 43.3881 45.8324 43.2456 45.8324C42.9108 45.8324 42.6738 45.9136 42.5346 46.076C42.3987 46.2351 42.3308 46.4638 42.3308 46.7621V55H40.5261ZM49.1344 47.3636V48.7557H44.7445V47.3636H49.1344ZM45.8283 45.5341H47.628V52.7031C47.628 52.9451 47.6645 53.1307 47.7374 53.2599C47.8136 53.3859 47.9131 53.4721 48.0357 53.5185C48.1583 53.5649 48.2942 53.5881 48.4434 53.5881C48.556 53.5881 48.6588 53.5798 48.7516 53.5632C48.8477 53.5466 48.9206 53.5317 48.9703 53.5185L49.2736 54.9254C49.1775 54.9586 49.04 54.995 48.861 55.0348C48.6853 55.0746 48.4699 55.0978 48.2147 55.1044C47.7639 55.1177 47.3579 55.0497 46.9966 54.9006C46.6354 54.7481 46.3487 54.5128 46.1365 54.1946C45.9277 53.8764 45.825 53.4787 45.8283 53.0014V45.5341Z" fill="#00A3FF"/>
<defs>
<clipPath id="clip0_330_74">
<rect width="63" height="63" fill="white" transform="translate(0 32)"/>
</clipPath>
<clipPath id="clip1_330_74">
<rect width="61" height="75" fill="white" transform="translate(63)"/>
</clipPath>
</defs>
</svg>
