<svg width="45" height="45" viewBox="0 0 45 45" fill="none" xmlns="http://www.w3.org/2000/svg">
<path d="M23.7068 16.0648L19.8926 28.4929L21.4859 28.9819L25.3002 16.5538L23.7068 16.0648Z" fill="black" stroke="black" stroke-width="0.3"/>
<path d="M17.0001 17.8333L12.25 22.6666L17.0001 27.4167L18.1667 26.25L14.5834 22.6666L18.1667 18.9999L17.0001 17.8333Z" fill="black" stroke="black" stroke-width="0.3"/>
<path d="M26.417 18.9999L30.0004 22.6666L26.417 26.25L27.5837 27.4167L32.3337 22.6666L27.5837 17.8333L26.417 18.9999Z" fill="black" stroke="black" stroke-width="0.3"/>
<path d="M32.4997 9.08301C32.333 8.91634 32.1663 8.83301 31.9163 8.83301H13.1661C12.9161 8.83301 12.7494 8.91634 12.5827 9.08301L8.91602 12.7497C8.74935 12.9164 8.66602 13.0831 8.66602 13.3331V31.9166C8.66602 32.1666 8.74935 32.3333 8.91602 32.5L12.5827 36.1667C12.7494 36.3334 12.9161 36.4167 13.1661 36.4167H31.9163C32.1663 36.4167 32.333 36.3334 32.4997 36.1667L36.1664 32.5C36.333 32.3333 36.4164 32.1666 36.4164 31.9166V13.3331C36.4164 13.0831 36.333 12.9164 36.1664 12.7497L32.4997 9.08301ZM34.7497 31.5833L31.583 34.75H13.4994L10.3327 31.5833V13.6664L13.4994 10.4997H31.583L34.7497 13.6664V31.5833Z" fill="black" stroke="black" stroke-width="0.3"/>
<path d="M5.24908 14H1.83237C1.4157 14 0.999023 14.3333 0.999023 14.8333C0.999023 15.25 1.33236 15.6667 1.83237 15.6667H5.24908C5.66575 15.6667 6.08242 15.3334 6.08242 14.8333C6.08242 14.3333 5.74908 14 5.24908 14Z" fill="black" stroke="black" stroke-width="0.3"/>
<path d="M5.24908 17.9167H1.83237C1.4157 17.9167 0.999023 18.2501 0.999023 18.7501C0.999023 19.1668 1.33236 19.5834 1.83237 19.5834H5.24908C5.66575 19.5834 6.08242 19.2501 6.08242 18.7501C6.08242 18.2501 5.74908 17.9167 5.24908 17.9167Z" fill="black" stroke="black" stroke-width="0.3"/>
<path d="M5.24908 21.8333H1.83237C1.4157 21.8333 0.999023 22.1666 0.999023 22.6666C0.999023 23.0833 1.33236 23.4999 1.83237 23.4999H5.24908C5.66575 23.4999 6.08242 23.1666 6.08242 22.6666C6.08242 22.1666 5.74908 21.8333 5.24908 21.8333Z" fill="black" stroke="black" stroke-width="0.3"/>
<path d="M5.24908 25.75H1.83237C1.4157 25.75 0.999023 26.0833 0.999023 26.5833C0.999023 27 1.33236 27.4167 1.83237 27.4167H5.24908C5.66575 27.4167 6.08242 27.0834 6.08242 26.5833C6.08242 26.0833 5.74908 25.75 5.24908 25.75Z" fill="black" stroke="black" stroke-width="0.3"/>
<path d="M5.24908 29.6667H1.83237C1.4157 29.6667 0.999023 30.0001 0.999023 30.5001C0.999023 30.9168 1.33236 31.3334 1.83237 31.3334H5.24908C5.66575 31.3334 6.08242 31.0001 6.08242 30.5001C6.08242 30.0001 5.74908 29.6667 5.24908 29.6667Z" fill="black" stroke="black" stroke-width="0.3"/>
<path d="M39.7494 15.5834H43.1661C43.5827 15.5834 43.9994 15.2501 43.9994 14.7501C43.9994 14.3334 43.6661 13.9167 43.1661 13.9167H39.7494C39.3327 13.9167 38.916 14.2501 38.916 14.7501C38.916 15.2501 39.2494 15.5834 39.7494 15.5834Z" fill="black" stroke="black" stroke-width="0.3"/>
<path d="M43.0831 17.9167H39.6664C39.2497 17.9167 38.833 18.2501 38.833 18.7501C38.833 19.1668 39.1663 19.5834 39.6664 19.5834H43.0831C43.4997 19.5834 43.9164 19.2501 43.9164 18.7501C43.9164 18.2501 43.5831 17.9167 43.0831 17.9167Z" fill="black" stroke="black" stroke-width="0.3"/>
<path d="M43.0831 21.8333H39.6664C39.2497 21.8333 38.833 22.1666 38.833 22.6666C38.833 23.0833 39.1663 23.4999 39.6664 23.4999H43.0831C43.4997 23.4999 43.9164 23.1666 43.9164 22.6666C43.9164 22.1666 43.5831 21.8333 43.0831 21.8333Z" fill="black" stroke="black" stroke-width="0.3"/>
<path d="M43.0831 25.75H39.6664C39.2497 25.75 38.833 26.0833 38.833 26.5833C38.833 27 39.1663 27.4167 39.6664 27.4167H43.0831C43.4997 27.4167 43.9164 27.0834 43.9164 26.5833C43.9164 26.0833 43.5831 25.75 43.0831 25.75Z" fill="black" stroke="black" stroke-width="0.3"/>
<path d="M43.0831 29.6667H39.6664C39.2497 29.6667 38.833 30.0001 38.833 30.5001C38.833 30.9168 39.1663 31.3334 39.6664 31.3334H43.0831C43.4997 31.3334 43.9164 31.0001 43.9164 30.5001C43.9164 30.0001 43.5831 29.6667 43.0831 29.6667Z" fill="black" stroke="black" stroke-width="0.3"/>
<path d="M14.6664 38.9167C14.2497 38.9167 13.833 39.2501 13.833 39.7501V43.1668C13.833 43.5835 14.1663 44.0002 14.6664 44.0002C15.083 44.0002 15.4997 43.6668 15.4997 43.1668V39.7501C15.4997 39.2501 15.1664 38.9167 14.6664 38.9167Z" fill="black" stroke="black" stroke-width="0.3"/>
<path d="M18.5824 38.9167C18.1657 38.9167 17.749 39.2501 17.749 39.7501V43.1668C17.749 43.5835 18.0824 44.0002 18.5824 44.0002C18.999 44.0002 19.4157 43.6668 19.4157 43.1668V39.7501C19.4157 39.2501 18.999 38.9167 18.5824 38.9167Z" fill="black" stroke="black" stroke-width="0.3"/>
<path d="M22.4994 38.9167C22.0827 38.9167 21.666 39.2501 21.666 39.7501V43.1668C21.666 43.5835 21.9994 44.0002 22.4994 44.0002C22.916 44.0002 23.3327 43.6668 23.3327 43.1668V39.7501C23.3327 39.2501 22.916 38.9167 22.4994 38.9167Z" fill="black" stroke="black" stroke-width="0.3"/>
<path d="M26.4164 38.9167C25.9997 38.9167 25.583 39.2501 25.583 39.7501V43.1668C25.583 43.5835 25.9163 44.0002 26.4164 44.0002C26.833 44.0002 27.2497 43.6668 27.2497 43.1668V39.7501C27.2497 39.2501 26.833 38.9167 26.4164 38.9167Z" fill="black" stroke="black" stroke-width="0.3"/>
<path d="M30.3333 38.9167C29.9167 38.9167 29.5 39.2501 29.5 39.7501V43.1668C29.5 43.5835 29.8333 44.0002 30.3333 44.0002C30.75 44.0002 31.1667 43.6668 31.1667 43.1668V39.7501C31.1667 39.2501 30.75 38.9167 30.3333 38.9167Z" fill="black" stroke="black" stroke-width="0.3"/>
<path d="M14.6664 6.08315C15.083 6.08315 15.4997 5.74982 15.4997 5.24981V1.8331C15.4997 1.41643 15.1664 0.999756 14.6664 0.999756C14.2497 0.999756 13.833 1.33309 13.833 1.8331V5.24981C13.833 5.74982 14.2497 6.08315 14.6664 6.08315Z" fill="black" stroke="black" stroke-width="0.3"/>
<path d="M18.5824 6.08315C18.999 6.08315 19.4157 5.74982 19.4157 5.24981V1.8331C19.4157 1.41643 19.0824 0.999756 18.5824 0.999756C18.1657 0.999756 17.749 1.33309 17.749 1.8331V5.24981C17.749 5.74982 18.1657 6.08315 18.5824 6.08315Z" fill="black" stroke="black" stroke-width="0.3"/>
<path d="M22.4994 6.08315C22.916 6.08315 23.3327 5.74982 23.3327 5.24981V1.8331C23.3327 1.41643 22.9994 0.999756 22.4994 0.999756C22.0827 0.999756 21.666 1.33309 21.666 1.8331V5.24981C21.666 5.74982 22.0827 6.08315 22.4994 6.08315Z" fill="black" stroke="black" stroke-width="0.3"/>
<path d="M26.4164 6.08315C26.833 6.08315 27.2497 5.74982 27.2497 5.24981V1.8331C27.2497 1.41643 26.9164 0.999756 26.4164 0.999756C25.9997 0.999756 25.583 1.33309 25.583 1.8331V5.24981C25.583 5.74982 25.9997 6.08315 26.4164 6.08315Z" fill="black" stroke="black" stroke-width="0.3"/>
<path d="M30.3333 6.08315C30.75 6.08315 31.1667 5.74982 31.1667 5.24981V1.8331C31.1667 1.41643 30.8334 0.999756 30.3333 0.999756C29.9167 0.999756 29.5 1.33309 29.5 1.8331V5.24981C29.5 5.74982 29.8333 6.08315 30.3333 6.08315Z" fill="black" stroke="black" stroke-width="0.3"/>
</svg>
