<svg width="177" height="48" viewBox="0 0 177 48" fill="none" xmlns="http://www.w3.org/2000/svg">
<g clip-path="url(#clip0_239_259)">
<mask id="mask0_239_259" style="mask-type:luminance" maskUnits="userSpaceOnUse" x="22" y="9" width="30" height="31">
<path d="M22.7129 9.89819H51.7425V39.7287H22.7129V9.89819Z" fill="white"/>
</mask>
<g mask="url(#mask0_239_259)">
<mask id="mask1_239_259" style="mask-type:luminance" maskUnits="userSpaceOnUse" x="-4" y="-13" width="82" height="76">
<path d="M-3.54883 14.142L55.9972 -12.9407L77.7043 35.6398L18.1583 62.7225L-3.54883 14.142Z" fill="white"/>
</mask>
<g mask="url(#mask1_239_259)">
<mask id="mask2_239_259" style="mask-type:luminance" maskUnits="userSpaceOnUse" x="-4" y="-13" width="82" height="76">
<path d="M-3.54883 14.142L55.9972 -12.9407L77.7043 35.6398L18.1583 62.7225L-3.54883 14.142Z" fill="white"/>
</mask>
<g mask="url(#mask2_239_259)">
<path d="M49.3972 27.6694C48.2275 28.2012 46.8499 27.6715 46.3207 26.4872C45.7916 25.3029 46.3102 23.913 47.482 23.3791C48.6517 22.8474 50.0292 23.3749 50.5584 24.5592C51.0876 25.7435 50.5689 27.1376 49.3972 27.6694ZM31.1886 11.7096C26.6989 13.752 23.7674 17.8495 22.9883 22.413C23.3012 22.0995 23.6708 21.8368 24.095 21.644C25.9954 20.7796 28.2339 21.6376 29.0928 23.5613C29.9538 25.4851 29.1096 27.7435 27.2071 28.6101C25.7938 29.252 24.1915 28.9406 23.1122 27.9469C23.3222 28.9152 23.633 29.8749 24.053 30.8156C27.3058 38.0952 35.7727 41.3431 42.9671 38.0719C50.1594 34.8007 53.3556 26.2478 50.1027 18.9681C46.8499 11.6885 38.3809 8.43846 31.1886 11.7096Z" fill="#0F0F0F"/>
</g>
</g>
</g>
<mask id="mask3_239_259" style="mask-type:luminance" maskUnits="userSpaceOnUse" x="21" y="24" width="54" height="21">
<path d="M21.6377 24.5422H74.3211V44.0677H21.6377V24.5422Z" fill="white"/>
</mask>
<g mask="url(#mask3_239_259)">
<mask id="mask4_239_259" style="mask-type:luminance" maskUnits="userSpaceOnUse" x="-4" y="-13" width="82" height="76">
<path d="M-3.54883 14.1417L55.9972 -12.9409L77.7043 35.6396L18.1583 62.7222L-3.54883 14.1417Z" fill="white"/>
</mask>
<g mask="url(#mask4_239_259)">
<mask id="mask5_239_259" style="mask-type:luminance" maskUnits="userSpaceOnUse" x="-4" y="-13" width="82" height="76">
<path d="M-3.54883 14.1417L55.9972 -12.9409L77.7043 35.6396L18.1583 62.7222L-3.54883 14.1417Z" fill="white"/>
</mask>
<g mask="url(#mask5_239_259)">
<path d="M25.3211 40.9383C33.0216 42.3451 38.8216 39.968 43.8342 36.6205C41.5348 36.9701 39.0001 36.8027 36.1211 35.7794C34.0002 35.0252 32.1438 33.8154 30.5164 32.2942C31.2681 32.7201 32.0556 33.0887 32.8851 33.3832C44.4789 37.5061 50.5645 28.9531 57.8345 26.362C62.6413 24.6502 67.6287 23.3853 74.3044 28.0315C58.2902 22.0146 51.5977 47.468 30.1405 43.5463C27.0494 42.9828 24.2984 41.7201 21.8457 39.9637C22.9545 40.3853 24.1115 40.718 25.3211 40.9383Z" fill="#FF7A00"/>
</g>
</g>
</g>
<mask id="mask6_239_259" style="mask-type:luminance" maskUnits="userSpaceOnUse" x="-1" y="5" width="54" height="21">
<path d="M-0.40332 5.55933H52.8176V25.0847H-0.40332V5.55933Z" fill="white"/>
</mask>
<g mask="url(#mask6_239_259)">
<mask id="mask7_239_259" style="mask-type:luminance" maskUnits="userSpaceOnUse" x="-4" y="-13" width="82" height="76">
<path d="M-3.54883 14.142L55.9972 -12.9407L77.7043 35.6398L18.1583 62.7225L-3.54883 14.142Z" fill="white"/>
</mask>
<g mask="url(#mask7_239_259)">
<mask id="mask8_239_259" style="mask-type:luminance" maskUnits="userSpaceOnUse" x="-4" y="-13" width="82" height="76">
<path d="M-3.54883 14.142L55.9972 -12.9407L77.7043 35.6398L18.1583 62.7225L-3.54883 14.142Z" fill="white"/>
</mask>
<g mask="url(#mask8_239_259)">
<path d="M48.8343 8.84326C41.1318 7.43648 35.3338 9.81359 30.3212 13.1611C32.6186 12.8136 35.1553 12.9788 38.0343 14.0043C40.1553 14.7585 42.0116 15.9661 43.6391 17.4873C42.8873 17.0636 42.0998 16.695 41.2682 16.3983C29.6766 12.2755 23.5909 20.8284 16.3188 23.4195C11.5142 25.1335 6.52679 26.3983 -0.148926 21.7522C15.8652 27.767 22.5578 2.31359 44.0129 6.2352C47.104 6.79876 49.8549 8.06359 52.3097 9.81995C51.201 9.39834 50.0439 9.06571 48.8343 8.84326Z" fill="#00A3FF"/>
</g>
</g>
</g>
<path d="M83.3804 37.1171C83.3804 37.3946 83.5043 37.5196 83.7794 37.5196H89.7663C92.1119 37.5196 93.3593 36.2612 93.3593 33.8946V21.0345C93.3593 18.6679 92.1119 17.384 89.7663 17.384H83.7794C83.5043 17.384 83.3804 17.5345 83.3804 17.7866V37.1171ZM86.7739 34.1976V20.7061H89.0691C89.7159 20.7061 90.0666 21.0599 90.0666 21.7378V33.1912C90.0666 33.8692 89.7159 34.1976 89.0691 34.1976H86.7739Z" fill="#0F0F0F"/>
<path d="M89.0102 10.1378C89.2496 9.88353 89.552 9.75641 89.9174 9.75641C90.2807 9.75641 90.581 9.87929 90.8162 10.1208C91.0556 10.3645 91.1774 10.6717 91.1774 11.0445C91.1774 11.4132 91.0556 11.714 90.8162 11.9513C90.581 12.1886 90.2807 12.3073 89.9174 12.3073C89.5688 12.3073 89.2727 12.1886 89.027 11.9513C88.7792 11.714 88.6574 11.4132 88.6574 11.0445C88.6574 10.6886 88.775 10.3878 89.0102 10.1378ZM89.0102 7.0276C89.2496 6.77336 89.552 6.64624 89.9174 6.64624C90.2807 6.64624 90.581 6.76912 90.8162 7.01065C91.0556 7.25429 91.1774 7.56149 91.1774 7.93438C91.1774 8.30302 91.0556 8.60387 90.8162 8.84116C90.581 9.07844 90.2807 9.19709 89.9174 9.19709C89.5688 9.19709 89.2727 9.07844 89.027 8.84116C88.7792 8.60387 88.6574 8.30302 88.6574 7.93438C88.6574 7.57844 88.775 7.2776 89.0102 7.0276ZM85.9275 7.0276C86.1669 6.77336 86.4693 6.64624 86.8347 6.64624C87.198 6.64624 87.4983 6.76912 87.7334 7.01065C87.9728 7.25429 88.0946 7.56149 88.0946 7.93438C88.0946 8.30302 87.9728 8.60387 87.7334 8.84116C87.4983 9.07844 87.198 9.19709 86.8347 9.19709C86.4861 9.19709 86.19 9.07844 85.9443 8.84116C85.6965 8.60387 85.5747 8.30302 85.5747 7.93438C85.5747 7.57844 85.6923 7.2776 85.9275 7.0276Z" fill="#0F0F0F"/>
<path d="M107.987 23.5261C107.987 21.1596 106.74 19.9011 104.394 19.9011H98.4073C98.1574 19.9011 98.0083 20.0515 98.0083 20.3037V37.1172C98.0083 37.3693 98.1574 37.5198 98.4073 37.5198H100.852C101.102 37.5198 101.251 37.3693 101.251 37.1172V32.2083H103.472L104.669 37.1681C104.72 37.3948 104.844 37.5198 105.094 37.5198H107.538C107.813 37.5198 107.962 37.3693 107.886 37.0664L106.591 31.6554C107.513 31.077 107.987 30.0452 107.987 28.5854V23.5261ZM101.251 28.9626V23.149H103.745C104.394 23.149 104.745 23.5007 104.745 24.1554V27.9562C104.745 28.6109 104.394 28.9626 103.745 28.9626H101.251Z" fill="#0F0F0F"/>
<path d="M103.638 10.1378C103.878 9.88353 104.18 9.75641 104.545 9.75641C104.909 9.75641 105.209 9.87929 105.444 10.1208C105.683 10.3645 105.805 10.6717 105.805 11.0445C105.805 11.4132 105.683 11.714 105.444 11.9513C105.209 12.1886 104.909 12.3073 104.545 12.3073C104.197 12.3073 103.901 12.1886 103.655 11.9513C103.407 11.714 103.285 11.4132 103.285 11.0445C103.285 10.6886 103.403 10.3878 103.638 10.1378ZM100.555 13.2479C100.795 12.9937 101.097 12.8666 101.463 12.8666C101.826 12.8666 102.126 12.9895 102.361 13.231C102.601 13.4746 102.723 13.7818 102.723 14.1547C102.723 14.5234 102.601 14.8242 102.361 15.0615C102.126 15.2988 101.826 15.4174 101.463 15.4174C101.114 15.4174 100.818 15.2988 100.572 15.0615C100.324 14.8242 100.203 14.5234 100.203 14.1547C100.203 13.7988 100.32 13.4979 100.555 13.2479ZM100.555 10.1378C100.795 9.88353 101.097 9.75641 101.463 9.75641C101.826 9.75641 102.126 9.87929 102.361 10.1208C102.601 10.3645 102.723 10.6717 102.723 11.0445C102.723 11.4132 102.601 11.714 102.361 11.9513C102.126 12.1886 101.826 12.3073 101.463 12.3073C101.114 12.3073 100.818 12.1886 100.572 11.9513C100.324 11.714 100.203 11.4132 100.203 11.0445C100.203 10.6886 100.32 10.3878 100.555 10.1378ZM100.555 7.0276C100.795 6.77336 101.097 6.64624 101.463 6.64624C101.826 6.64624 102.126 6.76912 102.361 7.01065C102.601 7.25429 102.723 7.56149 102.723 7.93438C102.723 8.30302 102.601 8.60387 102.361 8.84116C102.126 9.07844 101.826 9.19709 101.463 9.19709C101.114 9.19709 100.818 9.07844 100.572 8.84116C100.324 8.60387 100.203 8.30302 100.203 7.93438C100.203 7.57844 100.32 7.2776 100.555 7.0276Z" fill="#0F0F0F"/>
<path d="M114.498 37.5198C114.223 37.5198 114.099 37.3693 114.099 37.1172V20.3037C114.099 20.0515 114.223 19.9011 114.498 19.9011H117.094C117.341 19.9011 117.493 20.0515 117.493 20.3037V37.1172C117.493 37.3693 117.341 37.5198 117.094 37.5198H114.498Z" fill="#0F0F0F"/>
<path d="M116.072 7.0276C116.311 6.77336 116.614 6.64624 116.979 6.64624C117.342 6.64624 117.642 6.76912 117.878 7.01065C118.117 7.25429 118.239 7.56149 118.239 7.93438C118.239 8.30302 118.117 8.60387 117.878 8.84116C117.642 9.07844 117.342 9.19709 116.979 9.19709C116.63 9.19709 116.334 9.07844 116.089 8.84116C115.841 8.60387 115.719 8.30302 115.719 7.93438C115.719 7.57844 115.837 7.2776 116.072 7.0276ZM112.989 10.1378C113.228 9.88353 113.531 9.75641 113.896 9.75641C114.259 9.75641 114.56 9.87929 114.795 10.1208C115.034 10.3645 115.156 10.6717 115.156 11.0445C115.156 11.4132 115.034 11.714 114.795 11.9513C114.56 12.1886 114.259 12.3073 113.896 12.3073C113.548 12.3073 113.252 12.1886 113.006 11.9513C112.758 11.714 112.636 11.4132 112.636 11.0445C112.636 10.6886 112.754 10.3878 112.989 10.1378Z" fill="#0F0F0F"/>
<path d="M126.469 19.9011C124.149 19.9011 122.876 21.1596 122.876 23.5261V27.8799C122.876 28.3587 123.101 28.6596 123.55 28.8121L129.537 30.774V33.3164C129.537 33.9965 129.188 34.3227 128.54 34.3227H127.191C126.568 34.3227 126.194 33.9965 126.194 33.3164V32.2592C126.194 31.9816 126.07 31.8566 125.795 31.8566H123.275C123.025 31.8566 122.876 31.9816 122.876 32.2592V33.8948C122.876 36.2613 124.149 37.5198 126.469 37.5198H129.262C131.608 37.5198 132.855 36.2613 132.855 33.8948V29.1638C132.855 28.685 132.63 28.3842 132.206 28.2316L126.169 26.2698V24.1299C126.169 23.4753 126.542 23.1236 127.166 23.1236H128.54C129.212 23.1236 129.537 23.4753 129.537 24.1299V25.1871C129.537 25.4393 129.686 25.5897 129.936 25.5897H132.456C132.731 25.5897 132.855 25.4393 132.855 25.1871V23.5261C132.855 21.1596 131.608 19.9011 129.262 19.9011H126.469Z" fill="#0F0F0F"/>
<path d="M128.506 7.0276C128.745 6.77336 129.048 6.64624 129.413 6.64624C129.776 6.64624 130.077 6.76912 130.312 7.01065C130.551 7.25429 130.673 7.56149 130.673 7.93438C130.673 8.30302 130.551 8.60387 130.312 8.84116C130.077 9.07844 129.776 9.19709 129.413 9.19709C129.064 9.19709 128.768 9.07844 128.523 8.84116C128.275 8.60387 128.153 8.30302 128.153 7.93438C128.153 7.57844 128.271 7.2776 128.506 7.0276ZM125.423 13.2479C125.662 12.9937 125.965 12.8666 126.33 12.8666C126.694 12.8666 126.994 12.9895 127.229 13.231C127.468 13.4746 127.59 13.7818 127.59 14.1547C127.59 14.5234 127.468 14.8242 127.229 15.0615C126.994 15.2988 126.694 15.4174 126.33 15.4174C125.982 15.4174 125.686 15.2988 125.44 15.0615C125.192 14.8242 125.07 14.5234 125.07 14.1547C125.07 13.7988 125.188 13.4979 125.423 13.2479ZM125.423 10.1378C125.662 9.88353 125.965 9.75641 126.33 9.75641C126.694 9.75641 126.994 9.87929 127.229 10.1208C127.468 10.3645 127.59 10.6717 127.59 11.0445C127.59 11.4132 127.468 11.714 127.229 11.9513C126.994 12.1886 126.694 12.3073 126.33 12.3073C125.982 12.3073 125.686 12.1886 125.44 11.9513C125.192 11.714 125.07 11.4132 125.07 11.0445C125.07 10.6886 125.188 10.3878 125.423 10.1378Z" fill="#0F0F0F"/>
<path d="M144.089 27.1003H140.897V20.3037C140.897 20.0515 140.746 19.9011 140.498 19.9011H137.928C137.628 19.9011 137.504 20.0515 137.504 20.3037V37.1172C137.504 37.3693 137.628 37.5198 137.928 37.5198H140.498C140.746 37.5198 140.897 37.3693 140.897 37.1172V30.4223H144.089V37.1172C144.089 37.3693 144.241 37.5198 144.488 37.5198H147.059C147.359 37.5198 147.483 37.3693 147.483 37.1172V20.3037C147.483 20.0515 147.359 19.9011 147.059 19.9011H144.488C144.241 19.9011 144.089 20.0515 144.089 20.3037V27.1003Z" fill="#0F0F0F"/>
<path d="M143.134 10.1378C143.373 9.88353 143.676 9.75641 144.041 9.75641C144.404 9.75641 144.705 9.87929 144.94 10.1208C145.179 10.3645 145.301 10.6717 145.301 11.0445C145.301 11.4132 145.179 11.714 144.94 11.9513C144.705 12.1886 144.404 12.3073 144.041 12.3073C143.692 12.3073 143.396 12.1886 143.151 11.9513C142.903 11.714 142.781 11.4132 142.781 11.0445C142.781 10.6886 142.899 10.3878 143.134 10.1378ZM140.051 10.1378C140.29 9.88353 140.593 9.75641 140.958 9.75641C141.321 9.75641 141.622 9.87929 141.857 10.1208C142.096 10.3645 142.218 10.6717 142.218 11.0445C142.218 11.4132 142.096 11.714 141.857 11.9513C141.622 12.1886 141.321 12.3073 140.958 12.3073C140.61 12.3073 140.314 12.1886 140.068 11.9513C139.82 11.714 139.698 11.4132 139.698 11.0445C139.698 10.6886 139.816 10.3878 140.051 10.1378ZM140.051 7.0276C140.29 6.77336 140.593 6.64624 140.958 6.64624C141.321 6.64624 141.622 6.76912 141.857 7.01065C142.096 7.25429 142.218 7.56149 142.218 7.93438C142.218 8.30302 142.096 8.60387 141.857 8.84116C141.622 9.07844 141.321 9.19709 140.958 9.19709C140.61 9.19709 140.314 9.07844 140.068 8.84116C139.82 8.60387 139.698 8.30302 139.698 7.93438C139.698 7.57844 139.816 7.2776 140.051 7.0276Z" fill="#0F0F0F"/>
<path d="M161.712 19.9011C161.987 19.9011 162.111 20.0515 162.111 20.3037V22.8206C162.111 23.0727 161.987 23.2232 161.712 23.2232H158.819V37.1172C158.819 37.3948 158.695 37.5198 158.42 37.5198H155.826C155.576 37.5198 155.427 37.3948 155.427 37.1172V23.2232H152.531C152.284 23.2232 152.132 23.0727 152.132 22.8206V20.3037C152.132 20.0515 152.284 19.9011 152.531 19.9011H161.712Z" fill="#0F0F0F"/>
<path d="M157.762 10.1378C158.002 9.88353 158.304 9.75641 158.669 9.75641C159.033 9.75641 159.333 9.87929 159.568 10.1208C159.808 10.3645 159.929 10.6717 159.929 11.0445C159.929 11.4132 159.808 11.714 159.568 11.9513C159.333 12.1886 159.033 12.3073 158.669 12.3073C158.321 12.3073 158.025 12.1886 157.779 11.9513C157.531 11.714 157.409 11.4132 157.409 11.0445C157.409 10.6886 157.527 10.3878 157.762 10.1378ZM157.762 7.0276C158.002 6.77336 158.304 6.64624 158.669 6.64624C159.033 6.64624 159.333 6.76912 159.568 7.01065C159.808 7.25429 159.929 7.56149 159.929 7.93438C159.929 8.30302 159.808 8.60387 159.568 8.84116C159.333 9.07844 159.033 9.19709 158.669 9.19709C158.321 9.19709 158.025 9.07844 157.779 8.84116C157.531 8.60387 157.409 8.30302 157.409 7.93438C157.409 7.57844 157.527 7.2776 157.762 7.0276ZM154.679 13.2479C154.919 12.9937 155.221 12.8666 155.587 12.8666C155.95 12.8666 156.25 12.9895 156.485 13.231C156.725 13.4746 156.847 13.7818 156.847 14.1547C156.847 14.5234 156.725 14.8242 156.485 15.0615C156.25 15.2988 155.95 15.4174 155.587 15.4174C155.238 15.4174 154.942 15.2988 154.696 15.0615C154.448 14.8242 154.327 14.5234 154.327 14.1547C154.327 13.7988 154.444 13.4979 154.679 13.2479ZM154.679 10.1378C154.919 9.88353 155.221 9.75641 155.587 9.75641C155.95 9.75641 156.25 9.87929 156.485 10.1208C156.725 10.3645 156.847 10.6717 156.847 11.0445C156.847 11.4132 156.725 11.714 156.485 11.9513C156.25 12.1886 155.95 12.3073 155.587 12.3073C155.238 12.3073 154.942 12.1886 154.696 11.9513C154.448 11.714 154.327 11.4132 154.327 11.0445C154.327 10.6886 154.444 10.3878 154.679 10.1378Z" fill="#0F0F0F"/>
<path d="M168.622 17.384C168.347 17.384 168.223 17.5345 168.223 17.7866V37.1171C168.223 37.3692 168.347 37.5196 168.622 37.5196H171.218C171.465 37.5196 171.617 37.3692 171.617 37.1171V17.7866C171.617 17.5345 171.465 17.384 171.218 17.384H168.622Z" fill="#0F0F0F"/>
<path d="M170.196 7.0276C170.435 6.77336 170.738 6.64624 171.103 6.64624C171.466 6.64624 171.767 6.76912 172.002 7.01065C172.241 7.25429 172.363 7.56149 172.363 7.93438C172.363 8.30302 172.241 8.60387 172.002 8.84116C171.767 9.07844 171.466 9.19709 171.103 9.19709C170.754 9.19709 170.458 9.07844 170.213 8.84116C169.965 8.60387 169.843 8.30302 169.843 7.93438C169.843 7.57844 169.961 7.2776 170.196 7.0276ZM167.113 10.1378C167.352 9.88353 167.655 9.75641 168.02 9.75641C168.384 9.75641 168.684 9.87929 168.919 10.1208C169.158 10.3645 169.28 10.6717 169.28 11.0445C169.28 11.4132 169.158 11.714 168.919 11.9513C168.684 12.1886 168.384 12.3073 168.02 12.3073C167.672 12.3073 167.376 12.1886 167.13 11.9513C166.882 11.714 166.76 11.4132 166.76 11.0445C166.76 10.6886 166.878 10.3878 167.113 10.1378Z" fill="#0F0F0F"/>
</g>
<defs>
<clipPath id="clip0_239_259">
<rect width="177" height="48" fill="white"/>
</clipPath>
</defs>
</svg>
