<svg width="51" height="51" viewBox="0 0 51 51" fill="none" xmlns="http://www.w3.org/2000/svg">
<path d="M46.815 5.16797H36.8699C36.3199 5.16797 35.8738 5.61402 35.8738 6.16406V21.0042H28.5884V14.4721C28.5884 14.1104 28.3924 13.7771 28.0762 13.6015C27.7601 13.4256 27.3735 13.435 27.0664 13.6261L16.4783 20.2082V14.6784C16.4783 14.3152 16.2808 13.9809 15.9626 13.8058C15.6445 13.6308 15.2566 13.6423 14.9495 13.8367L3.05323 21.3647C2.76476 21.5473 2.58984 21.865 2.58984 22.2065V44.8358C2.58984 45.3858 3.03589 45.8319 3.58594 45.8319H46.815C47.3651 45.8319 47.8111 45.3858 47.8111 44.8358V6.16406C47.8111 5.61392 47.3652 5.16797 46.815 5.16797ZM4.58203 22.7549L14.4863 16.4875V22.0003C14.4863 22.3619 14.6823 22.6952 14.9985 22.8708C15.3144 23.0465 15.7011 23.0372 16.0083 22.8462L26.5964 16.2642V22.0003C26.5964 22.5503 27.0424 22.9964 27.5925 22.9964H35.874V35.0741H27.5214C26.9713 35.0741 26.5253 35.5201 26.5253 36.0702V43.8397H19.7917V36.0702C19.7917 35.5201 19.3456 35.0741 18.7956 35.0741H10.2151C9.6651 35.0741 9.21905 35.5201 9.21905 36.0702V43.8397H4.58203V22.7549ZM17.7993 43.8397H11.211V37.0663H17.7993V43.8397ZM28.5173 43.8397V37.0663H35.8738V43.8397H28.5173ZM45.8189 7.16016V13.9705H37.866V7.16016H45.8189ZM37.8661 43.8397V15.9627H45.819V43.8397H37.8661Z" fill="black"/>
</svg>
