<svg width="81" height="48" viewBox="0 0 81 48" fill="none" xmlns="http://www.w3.org/2000/svg">
<g clip-path="url(#clip0_355_338)">
<mask id="mask0_355_338" style="mask-type:luminance" maskUnits="userSpaceOnUse" x="22" y="9" width="30" height="31">
<path d="M22.7129 9.89819H51.7425V39.7287H22.7129V9.89819Z" fill="white"/>
</mask>
<g mask="url(#mask0_355_338)">
<mask id="mask1_355_338" style="mask-type:luminance" maskUnits="userSpaceOnUse" x="-4" y="-13" width="82" height="76">
<path d="M-3.54907 14.142L55.9969 -12.9407L77.704 35.6398L18.158 62.7225L-3.54907 14.142Z" fill="white"/>
</mask>
<g mask="url(#mask1_355_338)">
<mask id="mask2_355_338" style="mask-type:luminance" maskUnits="userSpaceOnUse" x="-4" y="-13" width="82" height="76">
<path d="M-3.54907 14.142L55.9969 -12.9407L77.704 35.6398L18.158 62.7225L-3.54907 14.142Z" fill="white"/>
</mask>
<g mask="url(#mask2_355_338)">
<path d="M49.3967 27.6694C48.227 28.2012 46.8494 27.6715 46.3203 26.4872C45.7911 25.3029 46.3098 23.913 47.4815 23.3791C48.6512 22.8474 50.0288 23.3749 50.5579 24.5592C51.0871 25.7435 50.5684 27.1376 49.3967 27.6694ZM31.1881 11.7096C26.6984 13.752 23.7669 17.8495 22.9878 22.413C23.3007 22.0995 23.6703 21.8368 24.0945 21.644C25.9949 20.7796 28.2335 21.6376 29.0923 23.5613C29.9533 25.4851 29.1091 27.7435 27.2066 28.6101C25.7933 29.252 24.1911 28.9406 23.1117 27.9469C23.3217 28.9152 23.6325 29.8749 24.0525 30.8156C27.3053 38.0952 35.7722 41.3431 42.9667 38.0719C50.159 34.8007 53.3551 26.2478 50.1023 18.9681C46.8494 11.6885 38.3804 8.43846 31.1881 11.7096Z" fill="#0F0F0F"/>
</g>
</g>
</g>
<mask id="mask3_355_338" style="mask-type:luminance" maskUnits="userSpaceOnUse" x="21" y="24" width="54" height="21">
<path d="M21.6377 24.5422H74.3211V44.0677H21.6377V24.5422Z" fill="white"/>
</mask>
<g mask="url(#mask3_355_338)">
<mask id="mask4_355_338" style="mask-type:luminance" maskUnits="userSpaceOnUse" x="-4" y="-13" width="82" height="76">
<path d="M-3.54907 14.1417L55.9969 -12.9409L77.704 35.6396L18.158 62.7222L-3.54907 14.1417Z" fill="white"/>
</mask>
<g mask="url(#mask4_355_338)">
<mask id="mask5_355_338" style="mask-type:luminance" maskUnits="userSpaceOnUse" x="-4" y="-13" width="82" height="76">
<path d="M-3.54907 14.1417L55.9969 -12.9409L77.704 35.6396L18.158 62.7222L-3.54907 14.1417Z" fill="white"/>
</mask>
<g mask="url(#mask5_355_338)">
<path d="M25.3209 40.9383C33.0214 42.3451 38.8214 39.968 43.834 36.6205C41.5345 36.9701 38.9999 36.8027 36.1209 35.7794C33.9999 35.0252 32.1436 33.8154 30.5161 32.2942C31.2679 32.7201 32.0554 33.0887 32.8849 33.3832C44.4786 37.5061 50.5643 28.9531 57.8343 26.362C62.641 24.6502 67.6284 23.3853 74.3041 28.0315C58.29 22.0146 51.5974 47.468 30.1402 43.5463C27.0491 42.9828 24.2982 41.7201 21.8455 39.9637C22.9542 40.3853 24.1113 40.718 25.3209 40.9383Z" fill="#FF7A00"/>
</g>
</g>
</g>
<mask id="mask6_355_338" style="mask-type:luminance" maskUnits="userSpaceOnUse" x="-1" y="5" width="54" height="21">
<path d="M-0.403076 5.55933H52.8179V25.0847H-0.403076V5.55933Z" fill="white"/>
</mask>
<g mask="url(#mask6_355_338)">
<mask id="mask7_355_338" style="mask-type:luminance" maskUnits="userSpaceOnUse" x="-4" y="-13" width="82" height="76">
<path d="M-3.54883 14.142L55.9972 -12.9407L77.7043 35.6398L18.1583 62.7225L-3.54883 14.142Z" fill="white"/>
</mask>
<g mask="url(#mask7_355_338)">
<mask id="mask8_355_338" style="mask-type:luminance" maskUnits="userSpaceOnUse" x="-4" y="-13" width="82" height="76">
<path d="M-3.54883 14.142L55.9972 -12.9407L77.7043 35.6398L18.1583 62.7225L-3.54883 14.142Z" fill="white"/>
</mask>
<g mask="url(#mask8_355_338)">
<path d="M48.8343 8.84326C41.1318 7.43648 35.3338 9.81359 30.3212 13.1611C32.6186 12.8136 35.1553 12.9788 38.0343 14.0043C40.1553 14.7585 42.0116 15.9661 43.6391 17.4873C42.8873 17.0636 42.0998 16.695 41.2682 16.3983C29.6766 12.2755 23.5909 20.8284 16.3188 23.4195C11.5142 25.1335 6.52679 26.3983 -0.148926 21.7522C15.8652 27.767 22.5578 2.31359 44.0129 6.2352C47.104 6.79876 49.8549 8.06359 52.3097 9.81995C51.201 9.39834 50.0439 9.06571 48.8343 8.84326Z" fill="#00A3FF"/>
</g>
</g>
</g>
</g>
<defs>
<clipPath id="clip0_355_338">
<rect width="81" height="48" fill="white"/>
</clipPath>
</defs>
</svg>
