<svg width="101" height="100" viewBox="0 0 101 100" fill="none" xmlns="http://www.w3.org/2000/svg">
<g clip-path="url(#clip0_215_917)">
<path d="M40.3 88.8V99H38.5V90.6H38.4L36 92.1V90.4L38.5 88.8H40.3ZM46.4 99.1C45.7 99.1 45.1 99 44.6 98.7C44.1 98.4 43.7 98.1 43.4 97.7C43.1 97.3 42.9 96.8 42.9 96.2H44.7C44.7 96.6 44.9 97 45.2 97.2C45.5 97.5 45.9 97.6 46.4 97.6C46.8 97.6 47.1 97.5 47.4 97.4C47.7 97.2 47.9 97 48.1 96.7C48.3 96.4 48.3 96.1 48.3 95.7C48.3 95.3 48.2 95 48.1 94.7C47.9 94.4 47.7 94.2 47.4 94C47.1 93.8 46.8 93.7 46.4 93.7C46.1 93.7 45.8 93.8 45.5 93.9C45.2 94 45 94.2 44.8 94.4L43.1 94.1L43.6 88.9H49.5V90.4H45.1L44.8 93.1H44.9C45.1 92.9 45.4 92.7 45.7 92.5C46 92.4 46.4 92.3 46.8 92.3C47.4 92.3 48 92.4 48.5 92.7C49 93 49.4 93.4 49.6 93.9C49.9 94.4 50 95 50 95.6C50 96.3 49.8 96.9 49.5 97.4C49.2 97.9 48.8 98.3 48.2 98.6C47.7 99 47.1 99.1 46.4 99.1ZM55.3 99.1C54.6 99.1 54 99 53.5 98.7C53 98.4 52.6 98.1 52.3 97.7C52 97.3 51.8 96.8 51.8 96.2H53.6C53.6 96.6 53.8 97 54.1 97.2C54.4 97.5 54.8 97.6 55.3 97.6C55.7 97.6 56 97.5 56.3 97.4C56.6 97.2 56.8 97 57 96.7C57.2 96.4 57.2 96.1 57.2 95.7C57.2 95.3 57.1 95 57 94.7C56.8 94.4 56.6 94.2 56.3 94C56 93.8 55.7 93.7 55.3 93.7C55 93.7 54.7 93.8 54.4 93.9C54.1 94 53.9 94.2 53.7 94.4L52 94.1L52.5 88.9H58.4V90.4H54L53.7 93.1H53.8C54 92.9 54.3 92.7 54.6 92.5C54.9 92.4 55.3 92.3 55.7 92.3C56.3 92.3 56.9 92.4 57.4 92.7C57.9 93 58.3 93.4 58.5 93.9C58.8 94.4 58.9 95 58.9 95.6C58.9 96.3 58.7 96.9 58.4 97.4C58.1 97.9 57.7 98.3 57.1 98.6C56.6 99 56 99.1 55.3 99.1Z" fill="#00A3FF"/>
<path d="M62.7002 92C64.0809 92 65.2002 90.8807 65.2002 89.5C65.2002 88.1193 64.0809 87 62.7002 87C61.3195 87 60.2002 88.1193 60.2002 89.5C60.2002 90.8807 61.3195 92 62.7002 92Z" fill="#00A3FF"/>
<mask id="mask0_215_917" style="mask-type:luminance" maskUnits="userSpaceOnUse" x="21" y="0" width="59" height="78">
<path d="M79.8 0H21V77.5H79.8V0Z" fill="white"/>
</mask>
<g mask="url(#mask0_215_917)">
<path d="M58.1997 9.50005H60.0997C60.3997 8.70005 61.1997 8.10005 62.1997 8.10005C63.0997 8.10005 63.9997 8.70005 64.2997 9.50005H65.4997C65.7997 8.70005 66.5997 8.10005 67.5997 8.10005C68.4997 8.10005 69.3997 8.70005 69.6997 9.50005H71.4997C71.3997 8.70005 71.0997 8.00005 70.7997 7.30005H58.8997C58.4997 8.00005 58.2997 8.70005 58.1997 9.50005Z" fill="#FF7A00"/>
<path d="M69.7998 10.3C69.7998 11.5 68.7998 12.5 67.5998 12.5C66.3998 12.5 65.3998 11.5 65.3998 10.3V10.1H64.4998V10.3C64.4998 11.5 63.4998 12.5 62.2998 12.5C61.0998 12.5 60.0998 11.5 60.0998 10.3V10.1H58.2998V10.4C58.2998 14.1 61.2998 17 64.9998 17C68.6998 17 71.6998 14 71.6998 10.4V10.1H69.8998C69.6998 10.2 69.7998 10.2 69.7998 10.3Z" fill="#FF7A00"/>
<path d="M64.9 17.1C68.7 17.1 71.8 14.1 71.8 10.3C71.8 6.5 68.7 3.5 64.9 3.5C61.1 3.5 58 6.5 58 10.3C58 14.1 61.1 17.1 64.9 17.1Z" fill="#FF7A00"/>
<path d="M66.8997 12C67.7997 12 68.5997 11.3 68.5997 10.3C68.5997 9.39998 67.7997 8.59998 66.8997 8.59998C65.9997 8.59998 65.1997 9.29998 65.1997 10.3C65.1997 11.2 65.9997 12 66.8997 12Z" fill="#FF7A00"/>
<path d="M51.7999 40.2L21.2999 73C21.0999 73.2 21.0999 73.5 21.2999 73.7C21.4999 73.9 21.7999 73.9 21.9999 73.7L52.4999 40.8C52.6999 40.6 52.6999 40.3 52.4999 40.1C52.2999 40 51.9999 40 51.7999 40.2Z" fill="#FF7A00" stroke="#FF7A00" stroke-width="0.6"/>
<path d="M51.4997 40.8C52.1997 32.9 54.5997 28.1 56.0997 25.9C56.2997 25.6 56.5997 25.3 56.7997 25V70C56.7997 72 58.4997 73.6 60.4997 73.6C62.4997 73.6 64.1997 72 64.1997 70V43.4001H65.4997V70C65.4997 72 67.1997 73.6 69.1997 73.6C71.1997 73.6 72.8997 72 72.8997 70V25.8C74.0997 28.3 75.4997 33.5001 74.7997 44.4001C74.6997 45.7001 75.6997 46.8001 76.9997 46.9001H77.0997C78.3997 46.9001 79.3997 45.9001 79.4997 44.7001C80.1997 32.3001 78.6997 24.2 74.7997 20.6C73.0997 19 71.4997 18.8 70.5997 18.8H58.6997C57.5997 18.9 55.1997 19.4 52.7997 22.4C49.3997 26.6 47.1997 34.0001 46.1997 44.4001C46.1997 44.9001 46.2997 45.4 46.5997 45.8L47.2997 46.5C47.5997 46.7001 47.9997 46.9001 48.4997 46.9001H48.6997C49.8997 46.9001 50.9997 46 51.0997 44.8C51.1997 43.9 51.2997 42.8001 51.3997 42.2001L51.4997 40.8Z" fill="#FF7A00"/>
</g>
<path d="M46.1601 50.97L45.8901 51.24L44.9701 52.16L44.6401 52.49L43.7501 53.38C43.7501 53.38 43.7201 53.41 43.7101 53.42C43.6301 53.48 43.5201 53.51 43.4201 53.5L42.2601 53.36C42.1201 53.34 41.9901 53.28 41.8901 53.19L41.0601 52.42L40.2301 51.65C40.1301 51.56 40.0601 51.43 40.0301 51.29L39.8001 50.15C39.7801 50.05 39.8001 49.94 39.8501 49.86C39.8501 49.86 39.8701 49.83 39.8801 49.81L40.7001 48.85L41.0101 48.49L41.8601 47.5L42.1101 47.21C42.1701 47.15 42.2201 47.08 42.2901 47.02L43.5201 45.85C43.7101 45.67 44.0201 45.66 44.2101 45.85L45.7901 47.32L47.3701 48.79C47.5701 48.97 47.5901 49.27 47.4201 49.48L46.3501 50.79C46.3001 50.86 46.2401 50.92 46.1801 50.98L46.1601 50.97Z" fill="#00A3FF"/>
<path d="M85.5 66.5C94.3 68.1 99.8 70.3 99.8 72.7C99.8 77.5 77.9 81.4 50.9 81.4C23.9 81.4 2 77.4 2 72.6C2 70.2 7.3 68.1 15.9 66.5" stroke="#00A3FF" stroke-width="2" stroke-linecap="square" stroke-linejoin="round"/>
</g>
<defs>
<clipPath id="clip0_215_917">
<rect width="100.8" height="99.1" fill="white"/>
</clipPath>
</defs>
</svg>
