<svg width="51" height="82" viewBox="0 0 51 82" fill="none" xmlns="http://www.w3.org/2000/svg">
<g clip-path="url(#clip0_215_800)">
<mask id="mask0_215_800" style="mask-type:luminance" maskUnits="userSpaceOnUse" x="0" y="0" width="51" height="82">
<path d="M51 0H0V82H51V0Z" fill="white"/>
</mask>
<g mask="url(#mask0_215_800)">
<path d="M2.87 51.29C2.92 51.29 2.98 51.29 3.03 51.29C4.51 51.21 5.63 49.96 5.55 48.52C5.42 46.34 5.36 44.35 5.36 42.54C5.35 34.6 6.53 30.14 7.69 27.81V76.94C7.69 79.18 9.54 81 11.83 81C14.12 81 15.97 79.19 15.97 76.94V47.33H17.52V76.94C17.52 79.18 19.37 80.99 21.66 80.99C23.95 80.99 25.8 79.18 25.8 76.94V27.81C26 28.21 26.2 28.67 26.4 29.2C27.34 31.76 28.14 35.97 28.13 42.53C28.13 44.34 28.07 46.33 27.94 48.51C27.85 49.96 28.98 51.2 30.46 51.28C30.51 51.28 30.57 51.28 30.62 51.28C32.03 51.28 33.21 50.2 33.29 48.81C33.42 46.54 33.49 44.45 33.49 42.53C33.48 32.63 31.86 27.15 29.66 23.86C28.56 22.22 27.27 21.18 26.09 20.6C25.31 20.22 24.6 20.04 24.04 19.96C23.78 19.88 23.51 19.83 23.22 19.83H10.29C10 19.83 9.73 19.88 9.48 19.96C8.91 20.04 8.2 20.22 7.42 20.6C5.62 21.47 3.68 23.39 2.32 26.78C0.93 30.18 0 35.1 0 42.53C0 44.45 0.06 46.54 0.2 48.81C0.28 50.2 1.46 51.28 2.87 51.28V51.29Z" fill="#FF7A00"/>
<path d="M16.74 17.9501C20.9 17.9501 24.27 14.6501 24.27 10.5701C24.27 6.49006 20.9 3.19006 16.74 3.19006C12.58 3.19006 9.20996 6.49006 9.20996 10.5701C9.20996 14.6501 12.58 17.9501 16.74 17.9501Z" fill="#FF7A00"/>
<path d="M7.44986 13.63C8.18986 13.63 8.78986 13.08 8.78986 12.41V9.56001C8.78986 9.11001 8.51986 8.72002 8.11986 8.51002C9.06986 4.71002 12.5699 1.88001 16.7399 1.88001C20.9099 1.88001 24.4099 4.71002 25.3599 8.51002C24.9599 8.72002 24.6899 9.11001 24.6899 9.56001V12.41C24.6899 13.08 25.2899 13.63 26.0299 13.63C26.7699 13.63 27.3699 13.08 27.3699 12.41V9.56001C27.3699 8.99002 26.9399 8.52001 26.3599 8.38001C25.3499 4.10001 21.4199 0.890015 16.7399 0.890015C12.0599 0.890015 8.13986 4.09001 7.11986 8.38001C6.53986 8.51002 6.10986 8.99002 6.10986 9.56001V12.41C6.10986 13.08 6.70986 13.63 7.44986 13.63Z" fill="#00A3FF"/>
<path d="M27.9702 45.1L50.2102 80.42" stroke="#FF7A00" stroke-width="1.5" stroke-linecap="round"/>
<path d="M37.5001 51.8C37.4301 52 37.5401 52.2 37.7401 52.26C38.5001 52.48 39.1201 52.98 39.4801 53.67C39.8501 54.37 39.9001 55.19 39.6301 55.95C39.5601 56.14 39.6701 56.35 39.8601 56.41C39.9601 56.44 40.0701 56.43 40.1501 56.38C40.2301 56.34 40.3001 56.26 40.3401 56.16C40.6801 55.2 40.6101 54.19 40.1501 53.31C39.7001 52.45 38.9201 51.82 37.9701 51.54C37.7701 51.48 37.5601 51.59 37.4901 51.79L37.5001 51.8Z" fill="#FF7A00"/>
<path d="M37.6701 47.41C37.4001 47.33 37.1001 47.48 36.9901 47.75C36.8901 48.01 37.0201 48.28 37.2901 48.36C39.3701 48.94 41.0101 50.27 41.9001 52.1C42.8001 53.93 42.8401 56.04 42.0201 58.04C41.9101 58.3 42.0401 58.58 42.3101 58.65C42.4501 58.69 42.5901 58.67 42.7201 58.61C42.8401 58.55 42.9401 58.45 43.0001 58.32C43.9301 56.07 43.8801 53.69 42.8701 51.63C41.8601 49.56 40.0101 48.06 37.6701 47.41Z" fill="#FF7A00"/>
<path d="M25.9102 13.53L25.7402 15.42C25.3102 20.16 24.4102 24.85 23.0602 29.41C23.0402 29.48 23.0202 29.55 23.0102 29.62L22.2602 34.83C22.2202 35.11 22.2002 35.4 22.2002 35.68V38.53C22.2002 39.08 22.2802 39.62 22.4202 40.15L23.4202 43.71C24.5002 47.54 26.7502 50.94 29.8702 53.43L31.2502 54.53" stroke="#00A3FF" stroke-width="0.5" stroke-linecap="round"/>
<path d="M36.7399 53.77L36.9299 54.1L37.5799 55.23L37.8099 55.64L38.4299 56.73C38.4299 56.73 38.4499 56.76 38.4499 56.78C38.4899 56.88 38.4899 56.98 38.4499 57.08L38.0099 58.16C37.9599 58.29 37.8599 58.4 37.7499 58.47L36.7899 59.07L35.8299 59.67C35.7099 59.74 35.5699 59.78 35.4299 59.77L34.2699 59.69C34.1699 59.69 34.0699 59.64 33.9999 59.56C33.9999 59.56 33.9799 59.53 33.9599 59.52L33.2499 58.48L32.9799 58.09L32.2499 57.01L32.0399 56.7C31.9899 56.63 31.9499 56.56 31.9099 56.48L31.0999 54.99C30.9699 54.76 31.0499 54.46 31.2799 54.32L33.1099 53.18L34.9399 52.04C35.1699 51.9 35.4599 51.96 35.6199 52.18L36.5999 53.56C36.6499 53.63 36.6999 53.7 36.7399 53.78V53.77Z" fill="#00A3FF"/>
</g>
</g>
<defs>
<clipPath id="clip0_215_800">
<rect width="51" height="82" fill="white"/>
</clipPath>
</defs>
</svg>
