<svg width="24" height="24" viewBox="0 0 24 24" fill="none" xmlns="http://www.w3.org/2000/svg">
<g clip-path="url(#clip0_309_3116)">
<circle cx="12.0002" cy="11.9999" r="9.85075" fill="white"/>
<path fill-rule="evenodd" clip-rule="evenodd" d="M18.2101 17.2431V13.0478C18.2101 10.8 17.01 9.75406 15.4103 9.75406C14.1193 9.75406 13.5408 10.4644 13.2184 10.9627V9.92599H10.7862C10.8184 10.6127 10.7862 17.2431 10.7862 17.2431H13.2184V13.1567C13.2184 12.9385 13.2342 12.72 13.2986 12.5638C13.4742 12.1268 13.8743 11.6744 14.5459 11.6744C15.4264 11.6744 15.7782 12.3453 15.7782 13.3286V17.2435L18.2101 17.2431ZM8.2239 8.92731C9.07178 8.92731 9.60014 8.36492 9.60014 7.66247C9.58438 6.94498 9.07178 6.39871 8.24002 6.39871C7.40826 6.39871 6.86414 6.94462 6.86414 7.66247C6.86414 8.36492 7.39214 8.92731 8.2085 8.92731H8.2239ZM12.1789 22.9254C6.24408 22.9254 1.43262 18.1139 1.43262 12.1791C1.43262 6.24397 6.24408 1.43286 12.1789 1.43286C18.1137 1.43286 22.9252 6.24397 22.9252 12.1791C22.9252 18.1139 18.1137 22.9254 12.1789 22.9254ZM9.44002 17.2431V9.92599H7.00814V17.2431H9.44002Z" fill="#2867B2"/>
</g>
<defs>
<clipPath id="clip0_309_3116">
<rect width="24" height="24" fill="white"/>
</clipPath>
</defs>
</svg>
