<svg width="44" height="44" viewBox="0 0 44 44" fill="none" xmlns="http://www.w3.org/2000/svg">
<path d="M15.3416 40.2527C15.4443 40.304 15.5616 40.3334 15.6716 40.3334C15.8916 40.3334 16.1116 40.2307 16.2509 40.0474L32.7289 18.7807C32.8976 18.5607 32.9343 18.26 32.8096 18.0107C32.6849 17.7614 32.4283 17.6 32.1496 17.6H25.4103L28.8643 4.58338C28.9523 4.24605 28.791 3.88671 28.4756 3.73271C28.1603 3.57871 27.7789 3.66671 27.5663 3.94538L11.2643 25.4614C11.0956 25.6814 11.0663 25.982 11.191 26.2314C11.3156 26.4807 11.5723 26.642 11.8509 26.642H18.5756L14.9603 39.402C14.8649 39.7394 15.0263 40.0987 15.3416 40.2527ZM20.255 26.1067C20.321 25.8867 20.2696 25.6447 20.1376 25.4614C19.9983 25.278 19.7856 25.168 19.551 25.168H13.3323L26.4883 7.80271L23.7456 18.1427C23.6869 18.3627 23.7383 18.5974 23.8703 18.7807C24.0096 18.964 24.2223 19.0667 24.4496 19.0667H30.6463L17.4023 36.1607L20.255 26.1067Z" fill="black"/>
<path d="M21.0317 38.148C21.3544 38.17 21.6771 38.1773 21.9997 38.1773C30.9171 38.1773 38.1771 30.9173 38.1771 22C38.1771 16.302 35.2731 11.132 30.3964 8.1693C30.0517 7.95663 29.5971 8.06663 29.3917 8.4113C29.1791 8.75597 29.2891 9.21063 29.6337 9.41597C34.0631 12.1146 36.7104 16.8153 36.7104 21.9926C36.7104 30.1033 30.1104 36.7033 21.9997 36.7033C21.6991 36.7033 21.4057 36.696 21.1124 36.674C20.6944 36.6593 20.3571 36.96 20.3351 37.3633C20.3131 37.7813 20.6284 38.126 21.0317 38.148Z" fill="black"/>
<path d="M13.4929 35.7646C13.6103 35.838 13.7496 35.8746 13.8816 35.8746C14.1236 35.8746 14.3656 35.75 14.5049 35.53C14.7176 35.1853 14.6149 34.7306 14.2703 34.518C9.8996 31.812 7.28893 27.1333 7.28893 22C7.28893 13.8893 13.8889 7.2893 21.9996 7.2893C22.2636 7.2893 22.5203 7.29663 22.7769 7.3113C23.1803 7.3333 23.5249 7.0253 23.5469 6.61463C23.5689 6.2113 23.2609 5.86663 22.8503 5.84463C22.5716 5.82996 22.2856 5.82263 21.9996 5.82263C13.0823 5.82263 5.82227 13.0826 5.82227 22C5.82227 27.6466 8.6896 32.7873 13.4929 35.7646Z" fill="black"/>
</svg>
